# xmcd
#
# Track frame offsets:
# 150
# 16910
# 44631
# 61087
# 77978
# 94345
# 108166
# 126307
# 144334
# 160852
# 177076
# 191977
#
# Disc length: 2784 seconds
#
#
# Revision: 0
# Processed by: cddbd v1.4PL0 Copyright (c) Steve Scherf et al.
# Submitted via: FreeRIP 2.35 
#
DISCID=a10ade0c
DTITLE=Alabama - In The Mood {The Love Songs}
DYEAR=1900
DGENRE=
TTITLE0=I'm In The Mood
TTITLE1=The Living Years
TTITLE2=When We Make Love
TTITLE3=Touch Me When We're Dancing
TTITLE4=Feels So Right
TTITLE5=How Do You Fall In Love
TTITLE6=Fallin' Again
TTITLE7=Lady Down On Love
TTITLE8=The Closer You Get
TTITLE9=If I Had You
TTITLE10=We Can't Love Like This Anymore
TTITLE11=Then Again
EXTD=
EXTT0=
EXTT1=
EXTT2=
EXTT3=
EXTT4=
EXTT5=
EXTT6=
EXTT7=
EXTT8=
EXTT9=
EXTT10=
EXTT11=
PLAYORDER=
